<?xml version="1.0" encoding="utf-8"?>
<!-- Generator: Adobe Illustrator 24.3.0, SVG Export Plug-In . SVG Version: 6.00 Build 0)  -->
<svg version="1.1" id="Capa_1" xmlns="http://www.w3.org/2000/svg" xmlns:xlink="http://www.w3.org/1999/xlink" x="0px" y="0px"
	 viewBox="0 0 640.2 624.7" style="enable-background:new 0 0 640.2 624.7;" xml:space="preserve">
<style type="text/css">
	.st0{fill:#00A4A1;}
	.st1{fill:#2C3265;}
</style>
<path class="st0" d="M320.8,28.7c-156.9,0-284.1,127.2-284.1,284.1s127.2,284.1,284.1,284.1s284.1-127.2,284.1-284.1
	S477.7,28.7,320.8,28.7z M320.8,567.8c-140.9,0-255.1-114.2-255.1-255.1S179.9,57.7,320.8,57.7s255.1,114.2,255.1,255.1
	S461.7,567.9,320.8,567.8L320.8,567.8z"/>
<circle class="st0" cx="318.8" cy="212.8" r="18.1"/>
<circle class="st0" cx="430.5" cy="252" r="18.1"/>
<circle class="st0" cx="207.2" cy="251.1" r="18.1"/>
<path class="st0" d="M168.1,369.8l0.4-29.7c0-4.6,1.2-9.2,3.4-13.3c4.7-8.8,15-22.1,34.6-21.9s30.3,13.1,35.2,21.7
	c2.2,3.9,3.4,8.4,3.4,12.9v58.7c-0.1,5,1.6,9.8,4.8,13.6c2.8,3.5,7,5.5,11.5,5.6c9.5,0.2,13.6-6.5,15.2-11c0.7-1.9,1-3.8,1-5.8
	v-84.4c0-6.5,1.1-13,3.2-19.2c4.5-13,15-31.3,38.1-31c24,0.3,34.9,17.8,39.5,29.2c2,5,3,10.3,3,15.7v89.4c0,0-1.6,15.9,16.2,17.3
	c19.1-0.5,18.9-16.9,19-19.7l0.4-57c0-8.7,3-17.1,8.5-23.8c5.5-6.5,14.2-12.3,28.2-12.4c21.5-0.2,31.4,14.6,35.5,23.9
	c1.7,3.9,2.5,8,2.5,12.2l0.3,29l70.7-1.6c4.5-18.1,6.8-36.7,6.8-55.4c0-126.2-102.3-228.5-228.5-228.5S92.3,186.6,92.3,312.8
	c0,19.1,2.3,38.2,7.1,56.7L168.1,369.8z M434.7,211.2c22.5,2.3,38.9,22.5,36.6,45c-2.3,22.5-22.5,38.9-45,36.6
	c-19.3-2-34.6-17.3-36.6-36.6c-2.2-22.6,14.3-42.8,36.9-45C429.3,211,432,211,434.7,211.2z M323,172c22.5,2.3,38.9,22.5,36.6,45
	s-22.5,38.9-45,36.6c-19.3-2-34.6-17.3-36.6-36.6c-2.2-22.6,14.3-42.8,36.9-45C317.6,171.7,320.3,171.7,323,172z M211.4,210.3
	c22.5,2.3,38.9,22.5,36.6,45s-22.5,38.9-45,36.6c-19.3-2-34.6-17.3-36.6-36.6c-2.2-22.6,14.3-42.8,36.9-45
	C206,210,208.7,210,211.4,210.3z"/>
<path class="st0" d="M449.1,396.4l-0.1-41.1c0-8.9-7.1-16.2-16-16.4h-0.4c-7.6,0-11.5,4.5-13.6,8.7c-1.4,2.9-2.1,6.1-2.1,9.4
	l-0.4,58.5c0,21-16.9,38-37.8,38.2c-7.2,0.1-14.8-0.8-19.8-3.3c-12.7-6.2-22.5-19.2-22.5-33.4l0.2-96.9c0-2.7-0.7-5.3-2.2-7.5
	c-3-4.9-8.4-7.8-14.1-7.6c-5.4,0.2-10.4,2.9-13.4,7.3c-1.8,2.5-2.7,5.6-2.7,8.7l-0.3,94c0,7.9-2.6,15.6-7.4,21.9
	c-6.1,7.8-16.6,16.3-33.1,16.4c-21.2,0.2-31.9-14.2-36.4-23.1c-1.9-3.9-2.9-8.1-2.9-12.5l0.1-64.1c0-3.6-1.1-7.1-3.2-10
	c-2.6-3.4-7.1-5.6-14.5-5.8c-6.6-0.1-10.7,2.7-13.2,5.7c-2.5,3.1-3.8,7-3.6,10.9l0.6,41.3l-85.6-9.5
	c30.7,90,115.9,154.8,216.3,154.8s185.6-64.7,216.3-154.7L449.1,396.4z"/>
</svg>
